<?xml version="1.0" encoding="utf-8"?><!-- Uploaded to: SVG Repo, www.svgrepo.com, Generator: SVG Repo Mixer Tools -->
<svg width="26px" height="26px" viewBox="0 -5 24 24" fill="none" xmlns="http://www.w3.org/2000/svg">
<path fill-rule="evenodd" clip-rule="evenodd" d="M2 6C2 5.44772 1.55228 5 1 5C0.447715 5 0 5.44772 0 6V18C0 18.5523 0.447715 19 1 19C1.55228 19 2 18.5523 2 18V16H22V18C22 18.5523 22.4477 19 23 19C23.5523 19 24 18.5523 24 18V10C24 7.79086 22.2091 6 20 6H13C11.8954 6 11 6.89543 11 8V14H2V6ZM22 10V14H13V8H20C21.1046 8 22 8.89543 22 10Z" fill="#243142"/>
<path fill-rule="evenodd" clip-rule="evenodd" d="M6.5 13C8.433 13 10 11.433 10 9.5C10 7.567 8.433 6 6.5 6C4.567 6 3 7.567 3 9.5C3 11.433 4.567 13 6.5 13ZM6.5 11.0799C5.62742 11.0799 4.92006 10.3726 4.92006 9.5C4.92006 8.62742 5.62742 7.92006 6.5 7.92006C7.37258 7.92006 8.07994 8.62742 8.07994 9.5C8.07994 10.3726 7.37258 11.0799 6.5 11.0799Z" fill="#243142"/>
</svg>